# xmcd CD database file
#
# Track frame offsets:
#	150
#	18853
#	36173
#	56374
#	76115
#	98618
#	117798
#	134053
#	159736
#	166642
#	182886
#	202391
#	217643
#	226071
#	231999
#
# Disc length: 3105 seconds
#
# Revision: 0
# Processed by: cddbd v1.5.1PL0 Copyright (c) Steve Scherf et al.
# Submitted via: CDex 1.51
#
DISCID=ba0c1f0f
DTITLE=zun - 東方夢時空　〜 Pantasmagria of Dim.Dream
DYEAR=1900
DGENRE=Game
TTITLE0=東方妖恋談
TTITLE1=Dim. Dream
TTITLE2=Tabula rasa 〜 空白少女
TTITLE3=夢消失　〜 Lost Dream
TTITLE4=夢幻遊戯　〜 Dream War
TTITLE5=魔法決戦！　〜 Fight it out!!
TTITLE6=Sailor of Time
TTITLE7=Strawberry Crisis
TTITLE8=永遠の満月
TTITLE9=Maple Dream ...
TTITLE10=リーインカーネーション
TTITLE11=Tabula rasa 〜 空白少女
TTITLE12=Sailor of Time
TTITLE13=Tabula rasa 〜 空白少女　FC
TTITLE14=Tabula rasa 〜 空白少女　eye catch
EXTD=
EXTT0=
EXTT1=
EXTT2=
EXTT3=
EXTT4=
EXTT5=
EXTT6=
EXTT7=
EXTT8=
EXTT9=
EXTT10=
EXTT11=
EXTT12=
EXTT13=
EXTT14=
PLAYORDER=
